<svg
  xmlns="http://www.w3.org/2000/svg"
  viewBox="0 0 36 24"
  role="img"
  aria-label="United States flag"
>
  <rect width="36" height="24" rx="3" fill="#fff" />
  <path
    fill="#b22234"
    d="M0 0h36v1.85H0zm0 3.69h36v1.85H0zm0 3.69h36v1.85H0zm0 3.69h36v1.85H0zm0 3.69h36v1.85H0zm0 3.69h36v1.85H0zm0 3.7h36V24H0z"
  />
  <path fill="#3c3b6e" d="M0 0h16.7v12.92H0z" />
  <g fill="#fff">
    <circle cx="2.1" cy="2" r=".42" />
    <circle cx="4.8" cy="2" r=".42" />
    <circle cx="7.5" cy="2" r=".42" />
    <circle cx="10.2" cy="2" r=".42" />
    <circle cx="12.9" cy="2" r=".42" />
    <circle cx="15.6" cy="2" r=".42" />
    <circle cx="3.45" cy="3.85" r=".42" />
    <circle cx="6.15" cy="3.85" r=".42" />
    <circle cx="8.85" cy="3.85" r=".42" />
    <circle cx="11.55" cy="3.85" r=".42" />
    <circle cx="14.25" cy="3.85" r=".42" />
    <circle cx="2.1" cy="5.7" r=".42" />
    <circle cx="4.8" cy="5.7" r=".42" />
    <circle cx="7.5" cy="5.7" r=".42" />
    <circle cx="10.2" cy="5.7" r=".42" />
    <circle cx="12.9" cy="5.7" r=".42" />
    <circle cx="15.6" cy="5.7" r=".42" />
    <circle cx="3.45" cy="7.55" r=".42" />
    <circle cx="6.15" cy="7.55" r=".42" />
    <circle cx="8.85" cy="7.55" r=".42" />
    <circle cx="11.55" cy="7.55" r=".42" />
    <circle cx="14.25" cy="7.55" r=".42" />
    <circle cx="2.1" cy="9.4" r=".42" />
    <circle cx="4.8" cy="9.4" r=".42" />
    <circle cx="7.5" cy="9.4" r=".42" />
    <circle cx="10.2" cy="9.4" r=".42" />
    <circle cx="12.9" cy="9.4" r=".42" />
    <circle cx="15.6" cy="9.4" r=".42" />
    <circle cx="3.45" cy="11.25" r=".42" />
    <circle cx="6.15" cy="11.25" r=".42" />
    <circle cx="8.85" cy="11.25" r=".42" />
    <circle cx="11.55" cy="11.25" r=".42" />
    <circle cx="14.25" cy="11.25" r=".42" />
  </g>
</svg>
